<?xml version="1.0" encoding="UTF-8"?>
<!DOCTYPE svg PUBLIC "-//W3C//DTD SVG 1.1//EN" "http://www.w3.org/Graphics/SVG/1.1/DTD/svg11.dtd">
<svg xmlns="http://www.w3.org/2000/svg" version="1.1" viewBox="0 0 49 49" stroke="none">
	<rect width="100%" height="100%" fill="#ffffff"/>
	<path d="M4,4h7v1h-7z M12,4h1v3h-1z M19,4h1v2h-1z M24,4h1v3h-1z M25,4h1v1h-1z M27,4h1v1h-1z M31,4h1v1h-1z M33,4h3v1h-3z M38,4h7v1h-7z M4,5h1v6h-1z M10,5h1v6h-1z M16,5h2v1h-2z M21,5h1v2h-1z M23,5h1v2h-1z M28,5h1v2h-1z M32,5h1v3h-1z M35,5h1v2h-1z M38,5h1v6h-1z M44,5h1v6h-1z M6,6h3v3h-3z M13,6h1v1h-1z M15,6h2v1h-2z M18,6h1v2h-1z M20,6h1v1h-1z M22,6h1v1h-1z M25,6h1v1h-1z M27,6h1v2h-1z M31,6h1v2h-1z M36,6h1v2h-1z M40,6h3v3h-3z M14,7h1v1h-1z M26,7h1v2h-1z M12,8h2v1h-2z M16,8h1v1h-1z M19,8h1v2h-1z M21,8h3v1h-3z M25,8h1v2h-1z M30,8h1v1h-1z M34,8h2v1h-2z M13,9h1v1h-1z M18,9h1v5h-1z M22,9h1v2h-1z M24,9h1v2h-1z M27,9h1v1h-1z M5,10h5v1h-5z M12,10h1v1h-1z M14,10h1v2h-1z M16,10h1v2h-1z M20,10h1v2h-1z M26,10h1v1h-1z M28,10h1v1h-1z M30,10h1v2h-1z M32,10h1v2h-1z M34,10h1v1h-1z M36,10h1v1h-1z M39,10h5v1h-5z M13,11h1v1h-1z M15,11h1v2h-1z M17,11h1v2h-1z M23,11h1v3h-1z M27,11h1v2h-1z M29,11h1v1h-1z M31,11h1v4h-1z M35,11h1v1h-1z M4,12h1v1h-1z M7,12h6v1h-6z M19,12h1v1h-1z M21,12h1v1h-1z M24,12h1v1h-1z M26,12h1v1h-1z M28,12h1v1h-1z M33,12h2v2h-2z M37,12h1v1h-1z M40,12h1v2h-1z M42,12h3v1h-3z M12,13h1v6h-1z M14,13h1v2h-1z M16,13h1v2h-1z M29,13h2v1h-2z M35,13h2v1h-2z M38,13h2v1h-2z M41,13h1v3h-1z M43,13h1v1h-1z M4,14h1v2h-1z M6,14h2v1h-2z M9,14h1v3h-1z M10,14h1v1h-1z M13,14h1v1h-1z M15,14h1v2h-1z M17,14h1v1h-1z M20,14h2v1h-2z M27,14h1v3h-1z M29,14h1v1h-1z M33,14h1v2h-1z M36,14h2v1h-2z M39,14h1v2h-1z M7,15h1v1h-1z M19,15h1v1h-1z M21,15h2v1h-2z M24,15h1v1h-1z M34,15h2v1h-2z M40,15h1v1h-1z M43,15h1v3h-1z M8,16h1v1h-1z M10,16h1v1h-1z M14,16h1v2h-1z M17,16h1v2h-1z M22,16h2v1h-2z M28,16h1v1h-1z M31,16h1v1h-1z M36,16h3v1h-3z M44,16h1v1h-1z M5,17h1v2h-1z M7,17h1v1h-1z M11,17h1v1h-1z M15,17h1v1h-1z M18,17h1v7h-1z M20,17h1v4h-1z M23,17h3v2h-3z M30,17h1v1h-1z M33,17h3v1h-3z M37,17h4v1h-4z M6,18h1v1h-1z M10,18h1v1h-1z M26,18h4v1h-4z M31,18h1v1h-1z M34,18h3v1h-3z M38,18h4v2h-4z M44,18h1v3h-1z M7,19h1v3h-1z M8,19h1v1h-1z M13,19h1v4h-1z M14,19h1v1h-1z M17,19h1v3h-1z M19,19h1v2h-1z M22,19h1v4h-1z M24,19h1v3h-1z M26,19h2v1h-2z M32,19h1v1h-1z M36,19h2v1h-2z M42,19h1v5h-1z M9,20h1v3h-1z M10,20h1v1h-1z M25,20h2v1h-2z M28,20h1v1h-1z M31,20h1v1h-1z M33,20h1v2h-1z M35,20h1v1h-1z M4,21h2v1h-2z M11,21h2v1h-2z M14,21h1v3h-1z M16,21h1v1h-1z M21,21h1v2h-1z M25,21h1v1h-1z M27,21h1v2h-1z M34,21h1v1h-1z M36,21h2v1h-2z M40,21h1v3h-1z M8,22h1v1h-1z M10,22h1v1h-1z M12,22h1v3h-1z M19,22h1v1h-1z M23,22h1v1h-1z M28,22h4v1h-4z M35,22h1v1h-1z M37,22h2v2h-2z M41,22h1v1h-1z M44,22h1v1h-1z M4,23h2v1h-2z M25,23h1v2h-1z M28,23h2v1h-2z M31,23h2v2h-2z M34,23h1v2h-1z M5,24h2v1h-2z M8,24h1v3h-1z M10,24h1v1h-1z M15,24h1v2h-1z M17,24h1v1h-1z M19,24h2v2h-2z M22,24h2v1h-2z M27,24h1v4h-1z M29,24h1v3h-1z M33,24h1v2h-1z M35,24h1v2h-1z M38,24h2v1h-2z M41,24h1v1h-1z M4,25h1v1h-1z M7,25h1v1h-1z M23,25h1v1h-1z M26,25h1v1h-1z M28,25h1v1h-1z M31,25h1v2h-1z M37,25h1v2h-1z M39,25h2v1h-2z M42,25h1v1h-1z M9,26h1v3h-1z M10,26h1v1h-1z M14,26h1v1h-1z M16,26h1v3h-1z M17,26h1v1h-1z M22,26h1v1h-1z M24,26h1v1h-1z M32,26h1v2h-1z M40,26h2v2h-2z M5,27h1v10h-1z M6,27h1v1h-1z M11,27h1v2h-1z M19,27h3v1h-3z M23,27h1v2h-1z M26,27h1v3h-1z M30,27h1v1h-1z M33,27h1v1h-1z M36,27h1v1h-1z M43,27h1v3h-1z M7,28h1v2h-1z M10,28h1v1h-1z M12,28h1v1h-1z M19,28h1v1h-1z M28,28h2v1h-2z M35,28h1v1h-1z M38,28h1v1h-1z M40,28h1v2h-1z M8,29h1v1h-1z M13,29h1v2h-1z M21,29h2v1h-2z M29,29h4v1h-4z M36,29h2v1h-2z M39,29h1v1h-1z M42,29h1v1h-1z M44,29h1v7h-1z M4,30h1v7h-1z M10,30h1v1h-1z M12,30h1v2h-1z M16,30h1v4h-1z M18,30h2v1h-2z M23,30h1v2h-1z M25,30h1v1h-1z M31,30h1v2h-1z M35,30h1v1h-1z M41,30h1v3h-1z M8,31h2v1h-2z M15,31h1v5h-1z M17,31h1v1h-1z M19,31h1v3h-1z M20,31h1v1h-1z M24,31h1v4h-1z M28,31h1v1h-1z M34,31h1v1h-1z M36,31h3v1h-3z M42,31h2v1h-2z M7,32h1v1h-1z M9,32h3v1h-3z M18,32h1v1h-1z M21,32h1v2h-1z M26,32h1v2h-1z M29,32h1v2h-1z M35,32h1v4h-1z M43,32h1v1h-1z M12,33h1v1h-1z M14,33h1v1h-1z M20,33h1v2h-1z M22,33h1v1h-1z M27,33h2v1h-2z M34,33h1v1h-1z M36,33h1v1h-1z M38,33h1v2h-1z M40,33h1v1h-1z M6,34h1v3h-1z M8,34h4v1h-4z M17,34h1v1h-1z M25,34h1v1h-1z M27,34h1v1h-1z M30,34h1v1h-1z M32,34h2v1h-2z M39,34h1v1h-1z M41,34h2v1h-2z M7,35h1v2h-1z M11,35h1v1h-1z M13,35h1v2h-1z M16,35h1v1h-1z M18,35h1v1h-1z M22,35h1v1h-1z M28,35h2v2h-2z M31,35h2v1h-2z M34,35h1v1h-1z M40,35h1v6h-1z M42,35h1v2h-1z M9,36h2v1h-2z M17,36h1v1h-1z M19,36h3v1h-3z M24,36h1v3h-1z M25,36h1v1h-1z M30,36h1v1h-1z M36,36h1v5h-1z M37,36h3v1h-3z M12,37h1v5h-1z M15,37h1v2h-1z M20,37h4v1h-4z M26,37h1v1h-1z M29,37h1v4h-1z M31,37h2v2h-2z M34,37h1v5h-1z M35,37h1v1h-1z M41,37h1v4h-1z M4,38h7v1h-7z M13,38h1v3h-1z M16,38h1v7h-1z M17,38h2v1h-2z M25,38h1v1h-1z M27,38h2v1h-2z M38,38h1v1h-1z M4,39h1v6h-1z M10,39h1v6h-1z M17,39h1v1h-1z M19,39h2v1h-2z M22,39h2v1h-2z M33,39h1v2h-1z M35,39h1v2h-1z M43,39h2v1h-2z M6,40h3v3h-3z M15,40h1v4h-1z M21,40h1v2h-1z M25,40h3v2h-3z M28,40h1v1h-1z M31,40h2v2h-2z M37,40h3v1h-3z M42,40h1v2h-1z M44,40h1v1h-1z M17,41h1v3h-1z M19,41h1v2h-1z M22,41h1v4h-1z M30,41h1v2h-1z M37,41h1v2h-1z M43,41h1v1h-1z M20,42h1v2h-1z M23,42h2v2h-2z M26,42h1v3h-1z M29,42h1v1h-1z M31,42h1v2h-1z M39,42h2v1h-2z M44,42h1v2h-1z M13,43h2v1h-2z M21,43h1v2h-1z M27,43h1v1h-1z M34,43h1v1h-1z M38,43h1v2h-1z M40,43h3v1h-3z M5,44h5v1h-5z M12,44h1v1h-1z M18,44h2v1h-2z M29,44h1v1h-1z M35,44h2v1h-2z M39,44h2v1h-2z" fill="#000000"/>
</svg>
